<svg xmlns="http://www.w3.org/2000/svg" xmlns:xlink="http://www.w3.org/1999/xlink" width="500" zoomAndPan="magnify" viewBox="0 0 375 74.999997" height="100" preserveAspectRatio="xMidYMid meet" version="1.2"><defs/><g id="3c34d4dde8"><g style="fill:#004e98;fill-opacity:1;"><g transform="translate(37.386772, 48.486162)"><path style="stroke:none" d="M 21.015625 -26.640625 L 28.09375 -26.640625 C 28.375 -26.640625 28.613281 -26.535156 28.8125 -26.328125 C 29.019531 -26.128906 29.125 -25.890625 29.125 -25.609375 L 29.125 -1.03125 C 29.125 -0.75 29.019531 -0.503906 28.8125 -0.296875 C 28.613281 -0.0976562 28.375 0 28.09375 0 L 21.96875 0 C 21.351562 0 20.84375 -0.265625 20.4375 -0.796875 L 12.140625 -11.375 L 12.140625 -1.03125 C 12.140625 -0.75 12.035156 -0.503906 11.828125 -0.296875 C 11.628906 -0.0976562 11.390625 0 11.109375 0 L 4.03125 0 C 3.75 0 3.503906 -0.0976562 3.296875 -0.296875 C 3.097656 -0.503906 3 -0.75 3 -1.03125 L 3 -25.609375 C 3 -25.890625 3.097656 -26.128906 3.296875 -26.328125 C 3.503906 -26.535156 3.75 -26.640625 4.03125 -26.640625 L 10.203125 -26.640625 C 10.804688 -26.640625 11.300781 -26.382812 11.6875 -25.875 L 19.984375 -14.421875 L 19.984375 -25.609375 C 19.984375 -25.890625 20.082031 -26.128906 20.28125 -26.328125 C 20.488281 -26.535156 20.734375 -26.640625 21.015625 -26.640625 Z M 21.015625 -26.640625 "/></g></g><g style="fill:#004e98;fill-opacity:1;"><g transform="translate(67.749492, 48.486162)"><path style="stroke:none" d="M 13.59375 -7.796875 C 13.382812 -7.773438 13.0625 -7.765625 12.625 -7.765625 C 12.195312 -7.765625 11.597656 -7.832031 10.828125 -7.96875 C 10.054688 -8.113281 9.207031 -8.40625 8.28125 -8.84375 C 7.351562 -9.289062 6.519531 -9.859375 5.78125 -10.546875 C 5.050781 -11.234375 4.457031 -12.132812 4 -13.25 C 3.539062 -14.363281 3.3125 -15.601562 3.3125 -16.96875 C 3.3125 -19.914062 4.507812 -22.328125 6.90625 -24.203125 C 9.300781 -26.085938 12.328125 -27.03125 15.984375 -27.03125 C 19.640625 -27.03125 22.695312 -26.160156 25.15625 -24.421875 C 27.613281 -22.679688 28.84375 -20.328125 28.84375 -17.359375 C 28.84375 -16.085938 28.59375 -14.796875 28.09375 -13.484375 C 27.601562 -12.179688 26.613281 -10.65625 25.125 -8.90625 L 18.15625 -0.765625 C 17.726562 -0.253906 17.234375 0 16.671875 0 L 8.671875 0 C 8.441406 0 8.242188 -0.0820312 8.078125 -0.25 C 7.921875 -0.414062 7.84375 -0.597656 7.84375 -0.796875 C 7.84375 -1.003906 7.894531 -1.179688 8 -1.328125 Z M 18.28125 -15.328125 C 18.90625 -15.765625 19.21875 -16.375 19.21875 -17.15625 C 19.21875 -17.945312 18.90625 -18.554688 18.28125 -18.984375 C 17.664062 -19.421875 16.910156 -19.640625 16.015625 -19.640625 C 15.128906 -19.640625 14.375 -19.421875 13.75 -18.984375 C 13.132812 -18.554688 12.828125 -17.945312 12.828125 -17.15625 C 12.828125 -16.375 13.132812 -15.765625 13.75 -15.328125 C 14.375 -14.898438 15.128906 -14.6875 16.015625 -14.6875 C 16.910156 -14.6875 17.664062 -14.898438 18.28125 -15.328125 Z M 18.28125 -15.328125 "/></g></g><g style="fill:#004e98;fill-opacity:1;"><g transform="translate(98.112212, 48.486162)"><path style="stroke:none" d="M 3.875 -19.15625 C 3.875 -21.25 4.941406 -23.082031 7.078125 -24.65625 C 9.210938 -26.238281 12.238281 -27.03125 16.15625 -27.03125 C 20.070312 -27.03125 23.082031 -26.253906 25.1875 -24.703125 C 27.300781 -23.148438 28.359375 -21.304688 28.359375 -19.171875 C 28.359375 -17.046875 27.46875 -15.347656 25.6875 -14.078125 C 28.125 -12.785156 29.34375 -10.898438 29.34375 -8.421875 C 29.34375 -5.953125 28.191406 -3.867188 25.890625 -2.171875 C 23.597656 -0.472656 20.359375 0.375 16.171875 0.375 C 11.984375 0.375 8.753906 -0.476562 6.484375 -2.1875 C 4.210938 -3.90625 3.078125 -6 3.078125 -8.46875 C 3.078125 -10.945312 4.207031 -12.816406 6.46875 -14.078125 C 4.738281 -15.378906 3.875 -17.070312 3.875 -19.15625 Z M 19.21875 -8.0625 C 19.195312 -8.75 18.894531 -9.296875 18.3125 -9.703125 C 17.726562 -10.109375 17.019531 -10.3125 16.1875 -10.3125 C 15.363281 -10.3125 14.644531 -10.101562 14.03125 -9.6875 C 13.425781 -9.269531 13.125 -8.726562 13.125 -8.0625 C 13.125 -7.40625 13.421875 -6.898438 14.015625 -6.546875 C 14.617188 -6.191406 15.335938 -6.015625 16.171875 -6.015625 C 17.015625 -6.015625 17.734375 -6.1875 18.328125 -6.53125 C 18.921875 -6.875 19.21875 -7.382812 19.21875 -8.0625 Z M 18.15625 -17.03125 C 18.71875 -17.394531 19 -17.878906 19 -18.484375 C 19 -19.097656 18.71875 -19.59375 18.15625 -19.96875 C 17.59375 -20.351562 16.929688 -20.546875 16.171875 -20.546875 C 15.410156 -20.546875 14.753906 -20.363281 14.203125 -20 C 13.660156 -19.632812 13.390625 -19.140625 13.390625 -18.515625 C 13.390625 -17.890625 13.660156 -17.394531 14.203125 -17.03125 C 14.753906 -16.664062 15.410156 -16.484375 16.171875 -16.484375 C 16.929688 -16.484375 17.59375 -16.664062 18.15625 -17.03125 Z M 18.15625 -17.03125 "/></g></g><g style="fill:#004e98;fill-opacity:1;"><g transform="translate(128.474931, 48.486162)"><path style="stroke:none" d="M 8.90625 -16.359375 L 23.484375 -16.359375 C 23.765625 -16.359375 24.003906 -16.257812 24.203125 -16.0625 C 24.410156 -15.863281 24.515625 -15.625 24.515625 -15.34375 L 24.515625 -9.9375 C 24.515625 -9.65625 24.410156 -9.410156 24.203125 -9.203125 C 24.003906 -9.003906 23.765625 -8.90625 23.484375 -8.90625 L 8.90625 -8.90625 C 8.625 -8.90625 8.378906 -9.003906 8.171875 -9.203125 C 7.972656 -9.410156 7.875 -9.65625 7.875 -9.9375 L 7.875 -15.34375 C 7.875 -15.625 7.972656 -15.863281 8.171875 -16.0625 C 8.378906 -16.257812 8.625 -16.359375 8.90625 -16.359375 Z M 8.90625 -16.359375 "/></g></g><g style="fill:#004e98;fill-opacity:1;"><g transform="translate(158.837651, 48.486162)"><path style="stroke:none" d="M 22.796875 -26.640625 L 29.765625 -26.640625 C 30.046875 -26.640625 30.285156 -26.535156 30.484375 -26.328125 C 30.691406 -26.128906 30.796875 -25.890625 30.796875 -25.609375 L 30.796875 -1.03125 C 30.796875 -0.75 30.691406 -0.503906 30.484375 -0.296875 C 30.285156 -0.0976562 30.046875 0 29.765625 0 L 22.875 0 C 22.59375 0 22.347656 -0.0976562 22.140625 -0.296875 C 21.941406 -0.503906 21.84375 -0.75 21.84375 -1.03125 L 21.84375 -12.828125 L 19.0625 -7.34375 C 18.914062 -7.039062 18.6875 -6.804688 18.375 -6.640625 C 18.070312 -6.472656 17.769531 -6.390625 17.46875 -6.390625 L 14.875 -6.390625 C 14.445312 -6.390625 14.09375 -6.503906 13.8125 -6.734375 C 13.53125 -6.960938 13.351562 -7.164062 13.28125 -7.34375 L 10.5 -12.828125 L 10.5 -1.03125 C 10.5 -0.75 10.394531 -0.503906 10.1875 -0.296875 C 9.988281 -0.0976562 9.753906 0 9.484375 0 L 2.59375 0 C 2.3125 0 2.066406 -0.0976562 1.859375 -0.296875 C 1.660156 -0.503906 1.5625 -0.75 1.5625 -1.03125 L 1.5625 -25.609375 C 1.5625 -25.890625 1.660156 -26.128906 1.859375 -26.328125 C 2.066406 -26.535156 2.3125 -26.640625 2.59375 -26.640625 L 9.546875 -26.640625 C 10.265625 -26.640625 10.8125 -26.296875 11.1875 -25.609375 L 16.171875 -16.484375 L 21.15625 -25.609375 C 21.539062 -26.296875 22.085938 -26.640625 22.796875 -26.640625 Z M 22.796875 -26.640625 "/></g></g><g style="fill:#004e98;fill-opacity:1;"><g transform="translate(189.200371, 48.486162)"><path style="stroke:none" d="M 8.984375 0 L 1.78125 0 C 1.5625 0 1.367188 -0.0820312 1.203125 -0.25 C 1.035156 -0.414062 0.953125 -0.570312 0.953125 -0.71875 C 0.953125 -0.875 0.960938 -0.988281 0.984375 -1.0625 L 9.28125 -25.390625 C 9.507812 -26.222656 10.082031 -26.640625 11 -26.640625 L 21.578125 -26.640625 C 22.492188 -26.640625 23.066406 -26.222656 23.296875 -25.390625 L 31.59375 -1.0625 C 31.613281 -0.988281 31.625 -0.875 31.625 -0.71875 C 31.625 -0.570312 31.539062 -0.414062 31.375 -0.25 C 31.21875 -0.0820312 31.023438 0 30.796875 0 L 23.59375 0 C 22.78125 0 22.210938 -0.429688 21.890625 -1.296875 L 20.9375 -3.953125 L 11.640625 -3.953125 L 10.703125 -1.296875 C 10.367188 -0.429688 9.796875 0 8.984375 0 Z M 19 -11.375 L 16.296875 -19.296875 L 13.59375 -11.375 Z M 19 -11.375 "/></g></g><g style="fill:#004e98;fill-opacity:1;"><g transform="translate(219.563091, 48.486162)"><path style="stroke:none" d="M 18.84375 -16.0625 L 29.875 -16.0625 C 30.15625 -16.0625 30.394531 -15.957031 30.59375 -15.75 C 30.800781 -15.550781 30.90625 -15.3125 30.90625 -15.03125 L 30.90625 -11 C 30.90625 -7.144531 29.59375 -4.285156 26.96875 -2.421875 C 24.34375 -0.554688 20.875 0.375 16.5625 0.375 C 12.25 0.375 8.773438 -0.554688 6.140625 -2.421875 C 3.515625 -4.285156 2.203125 -7.171875 2.203125 -11.078125 L 2.203125 -15.5625 C 2.203125 -17.519531 2.578125 -19.242188 3.328125 -20.734375 C 4.078125 -22.234375 5.125 -23.441406 6.46875 -24.359375 C 9.101562 -26.140625 12.46875 -27.03125 16.5625 -27.03125 C 18.59375 -27.03125 20.453125 -26.789062 22.140625 -26.3125 C 23.828125 -25.84375 25.171875 -25.257812 26.171875 -24.5625 C 27.171875 -23.863281 28.023438 -23.109375 28.734375 -22.296875 C 29.984375 -20.878906 30.609375 -19.625 30.609375 -18.53125 C 30.609375 -18.300781 30.523438 -18.101562 30.359375 -17.9375 C 30.191406 -17.78125 29.992188 -17.703125 29.765625 -17.703125 L 21.15625 -17.703125 C 20.65625 -17.703125 20.289062 -17.84375 20.0625 -18.125 C 19.269531 -19.113281 18.195312 -19.609375 16.84375 -19.609375 C 15.488281 -19.609375 14.421875 -19.335938 13.640625 -18.796875 C 12.867188 -18.265625 12.484375 -17.582031 12.484375 -16.75 L 12.484375 -10.28125 C 12.484375 -9.257812 12.863281 -8.460938 13.625 -7.890625 C 14.382812 -7.328125 15.457031 -7.046875 16.84375 -7.046875 C 18.226562 -7.046875 19.289062 -7.316406 20.03125 -7.859375 C 20.78125 -8.398438 21.171875 -9.039062 21.203125 -9.78125 L 18.84375 -9.78125 C 18.5625 -9.78125 18.316406 -9.878906 18.109375 -10.078125 C 17.910156 -10.285156 17.8125 -10.53125 17.8125 -10.8125 L 17.8125 -15.03125 C 17.8125 -15.3125 17.910156 -15.550781 18.109375 -15.75 C 18.316406 -15.957031 18.5625 -16.0625 18.84375 -16.0625 Z M 18.84375 -16.0625 "/></g></g><g style="fill:#004e98;fill-opacity:1;"><g transform="translate(249.925811, 48.486162)"><path style="stroke:none" d="M 13.328125 -7.421875 L 28.515625 -7.421875 C 28.785156 -7.421875 29.019531 -7.316406 29.21875 -7.109375 C 29.425781 -6.910156 29.53125 -6.671875 29.53125 -6.390625 L 29.53125 -1.03125 C 29.53125 -0.75 29.425781 -0.503906 29.21875 -0.296875 C 29.019531 -0.0976562 28.785156 0 28.515625 0 L 4.453125 0 C 4.171875 0 3.925781 -0.0976562 3.71875 -0.296875 C 3.519531 -0.503906 3.421875 -0.75 3.421875 -1.03125 L 3.421875 -25.609375 C 3.421875 -25.890625 3.519531 -26.128906 3.71875 -26.328125 C 3.925781 -26.535156 4.171875 -26.640625 4.453125 -26.640625 L 28.125 -26.640625 C 28.40625 -26.640625 28.644531 -26.535156 28.84375 -26.328125 C 29.050781 -26.128906 29.15625 -25.890625 29.15625 -25.609375 L 29.15625 -20.25 C 29.15625 -19.96875 29.050781 -19.722656 28.84375 -19.515625 C 28.644531 -19.316406 28.40625 -19.21875 28.125 -19.21875 L 13.328125 -19.21875 L 13.328125 -16.828125 L 26.03125 -16.828125 C 26.3125 -16.828125 26.550781 -16.722656 26.75 -16.515625 C 26.957031 -16.316406 27.0625 -16.078125 27.0625 -15.796875 L 27.0625 -10.84375 C 27.0625 -10.5625 26.957031 -10.316406 26.75 -10.109375 C 26.550781 -9.910156 26.3125 -9.8125 26.03125 -9.8125 L 13.328125 -9.8125 Z M 13.328125 -7.421875 "/></g></g><g style="fill:#004e98;fill-opacity:1;"><g transform="translate(280.288531, 48.486162)"><path style="stroke:none" d="M 31.28125 -1.1875 C 31.332031 -1.082031 31.359375 -0.941406 31.359375 -0.765625 C 31.359375 -0.585938 31.273438 -0.414062 31.109375 -0.25 C 30.953125 -0.0820312 30.757812 0 30.53125 0 L 21.890625 0 C 21.128906 0 20.59375 -0.316406 20.28125 -0.953125 L 16.9375 -8.484375 L 13.734375 -8.484375 L 13.734375 -1.03125 C 13.734375 -0.75 13.628906 -0.503906 13.421875 -0.296875 C 13.222656 -0.0976562 12.988281 0 12.71875 0 L 4.484375 0 C 4.210938 0 3.972656 -0.0976562 3.765625 -0.296875 C 3.566406 -0.503906 3.46875 -0.75 3.46875 -1.03125 L 3.46875 -25.609375 C 3.46875 -25.890625 3.566406 -26.128906 3.765625 -26.328125 C 3.972656 -26.535156 4.210938 -26.640625 4.484375 -26.640625 L 19.296875 -26.640625 C 22.773438 -26.640625 25.53125 -25.816406 27.5625 -24.171875 C 29.59375 -22.523438 30.609375 -20.28125 30.609375 -17.4375 C 30.609375 -13.976562 29.273438 -11.476562 26.609375 -9.9375 Z M 13.734375 -19.5625 L 13.734375 -15.53125 L 18.5 -15.53125 C 19.050781 -15.53125 19.476562 -15.710938 19.78125 -16.078125 C 20.09375 -16.453125 20.25 -16.914062 20.25 -17.46875 C 20.25 -18.03125 20.101562 -18.519531 19.8125 -18.9375 C 19.519531 -19.351562 19.082031 -19.5625 18.5 -19.5625 Z M 13.734375 -19.5625 "/></g></g><g style="fill:#004e98;fill-opacity:1;"><g transform="translate(310.651236, 48.486162)"><path style="stroke:none" d="M 26.3125 -2.390625 C 23.820312 -0.546875 20.441406 0.375 16.171875 0.375 C 11.910156 0.375 8.53125 -0.546875 6.03125 -2.390625 C 3.53125 -4.242188 2.28125 -7.140625 2.28125 -11.078125 L 2.28125 -25.609375 C 2.28125 -25.890625 2.378906 -26.128906 2.578125 -26.328125 C 2.785156 -26.535156 3.03125 -26.640625 3.3125 -26.640625 L 11.265625 -26.640625 C 11.546875 -26.640625 11.785156 -26.535156 11.984375 -26.328125 C 12.191406 -26.128906 12.296875 -25.890625 12.296875 -25.609375 L 12.296875 -10.46875 C 12.296875 -9.425781 12.644531 -8.625 13.34375 -8.0625 C 14.039062 -7.507812 14.984375 -7.234375 16.171875 -7.234375 C 17.367188 -7.234375 18.316406 -7.507812 19.015625 -8.0625 C 19.710938 -8.625 20.0625 -9.425781 20.0625 -10.46875 L 20.0625 -25.609375 C 20.0625 -25.890625 20.160156 -26.128906 20.359375 -26.328125 C 20.566406 -26.535156 20.8125 -26.640625 21.09375 -26.640625 L 29.046875 -26.640625 C 29.316406 -26.640625 29.550781 -26.535156 29.75 -26.328125 C 29.957031 -26.128906 30.0625 -25.890625 30.0625 -25.609375 L 30.0625 -11.078125 C 30.0625 -7.140625 28.8125 -4.242188 26.3125 -2.390625 Z M 26.3125 -2.390625 "/></g></g><g style="fill:#004e98;fill-opacity:1;"><g transform="translate(341.013971, 48.486162)"><path style="stroke:none" d="M 21.015625 -26.640625 L 28.09375 -26.640625 C 28.375 -26.640625 28.613281 -26.535156 28.8125 -26.328125 C 29.019531 -26.128906 29.125 -25.890625 29.125 -25.609375 L 29.125 -1.03125 C 29.125 -0.75 29.019531 -0.503906 28.8125 -0.296875 C 28.613281 -0.0976562 28.375 0 28.09375 0 L 21.96875 0 C 21.351562 0 20.84375 -0.265625 20.4375 -0.796875 L 12.140625 -11.375 L 12.140625 -1.03125 C 12.140625 -0.75 12.035156 -0.503906 11.828125 -0.296875 C 11.628906 -0.0976562 11.390625 0 11.109375 0 L 4.03125 0 C 3.75 0 3.503906 -0.0976562 3.296875 -0.296875 C 3.097656 -0.503906 3 -0.75 3 -1.03125 L 3 -25.609375 C 3 -25.890625 3.097656 -26.128906 3.296875 -26.328125 C 3.503906 -26.535156 3.75 -26.640625 4.03125 -26.640625 L 10.203125 -26.640625 C 10.804688 -26.640625 11.300781 -26.382812 11.6875 -25.875 L 19.984375 -14.421875 L 19.984375 -25.609375 C 19.984375 -25.890625 20.082031 -26.128906 20.28125 -26.328125 C 20.488281 -26.535156 20.734375 -26.640625 21.015625 -26.640625 Z M 21.015625 -26.640625 "/></g></g><g style="fill:#23b0e5;fill-opacity:1;"><g transform="translate(-10.061509, 56.501422)"><path style="stroke:none" d="M 44.46875 -24.046875 L 44.46875 -21.328125 C 44.46875 -20.328125 43.835938 -19.414062 42.578125 -18.59375 L 15.359375 -1.109375 C 15.140625 -0.972656 14.867188 -0.90625 14.546875 -0.90625 C 14.222656 -0.90625 13.929688 -1.035156 13.671875 -1.296875 C 13.410156 -1.554688 13.28125 -1.878906 13.28125 -2.265625 L 13.28125 -12.765625 C 13.28125 -13.546875 13.453125 -14.085938 13.796875 -14.390625 C 14.148438 -14.691406 14.367188 -14.863281 14.453125 -14.90625 C 15.015625 -15.34375 15.316406 -15.5625 15.359375 -15.5625 L 26.703125 -22.6875 L 15.359375 -29.8125 C 15.179688 -29.8125 14.863281 -30.015625 14.40625 -30.421875 C 13.957031 -30.835938 13.691406 -31.109375 13.609375 -31.234375 C 13.390625 -31.796875 13.28125 -32.25 13.28125 -32.59375 L 13.28125 -43.09375 C 13.28125 -43.488281 13.410156 -43.816406 13.671875 -44.078125 C 13.929688 -44.335938 14.222656 -44.46875 14.546875 -44.46875 C 14.867188 -44.46875 15.140625 -44.398438 15.359375 -44.265625 L 42.578125 -26.765625 C 43.835938 -25.941406 44.46875 -25.035156 44.46875 -24.046875 Z M 44.46875 -24.046875 "/></g></g></g></svg>